# xmcd CD database file
#
# Track frame offsets:
#	150
#	20282
#	41660
#	73236
#	104671
#	119127
#	135372
#	149211
#	162415
#	186393
#	202409
#	223262
#	251960
#	306392
#
# Disc length: 4269 seconds
#
# Revision: 2
# Processed by: cddbd v1.5.2PL0 Copyright (c) Steve Scherf et al.
# Submitted via: CDex 1.51
#
DISCID=f710ab0e
DTITLE=STEVIE RAY VAUGHAN - Reseda's Blues
DYEAR=1999
DGENRE=Blues Rock
TTITLE0=So Excited
TTITLE1=Pride And Joy
TTITLE2=Voodoo Chile(Hendrix Cover)
TTITLE3=Little Wing
TTITLE4=Third Stone From The Sun
TTITLE5=Mary Had A Little Lamb(Buddy Guy Cover)
TTITLE6=Tell Me(Chester Burnett)
TTITLE7=Love Struck Baby
TTITLE8=You'll Be Mine
TTITLE9=Rude Mood
TTITLE10=Scuttle Buttin
TTITLE11=Say What
TTITLE12=Ain't Gona Give Up On Love
TTITLE13=Electric Delta Blues
EXTD=YEAR: 1999
EXTT0=
EXTT1=
EXTT2=
EXTT3=
EXTT4=
EXTT5=
EXTT6=
EXTT7=
EXTT8=
EXTT9=
EXTT10=
EXTT11=
EXTT12=
EXTT13=
PLAYORDER=
